<svg aria-hidden="true" style="position: absolute; width: 0; height: 0; overflow: hidden;" version="1.1" xmlns="http://www.w3.org/2000/svg" xmlns:xlink="http://www.w3.org/1999/xlink">
<defs>

<symbol id="icon-MAGNIFYING-GLASS" viewBox="0 0 32 32">
<title>MAGNIFYING-GLASS</title>
<path d="M30.791 26.631c0.533 0.533 0.853 1.262 0.853 2.080 0 1.618-1.316 2.933-2.933 2.933-0.818 0-1.547-0.338-2.080-0.853v0l-8.587-8.604c-1.742 1.031-3.787 1.636-5.956 1.636-6.471 0-11.733-5.262-11.733-11.733 0-6.489 5.262-11.733 11.733-11.733 6.489 0 11.733 5.244 11.733 11.733 0 2.169-0.604 4.196-1.636 5.956l8.604 8.587zM12.089 3.289c-4.853 0-8.8 3.947-8.8 8.8s3.947 8.8 8.8 8.8c4.853 0 8.8-3.947 8.8-8.8s-3.947-8.8-8.8-8.8z"></path>
</symbol>

<symbol id="icon-SHOPPING-CART" viewBox="0 0 38 32">
<title>SHOPPING-CART</title>
<path d="M37.824 7.808v0l-5.291 11.733c-0.256 0.576-0.811 1.003-1.493 1.045v0l-15.189 1.003 0.875 2.517h16.555c1.941 0 3.52 1.579 3.52 3.52s-1.579 3.52-3.52 3.52c-1.941 0-3.52-1.579-3.52-3.52h-16.427c0 1.941-1.579 3.52-3.52 3.52s-3.52-1.579-3.52-3.52c0-1.941 1.579-3.52 3.52-3.52h3.179l-6.784-19.371h-4.011c-0.981 0-1.771-0.768-1.771-1.749s0.789-1.771 1.771-1.771h5.269c0.768 0 1.408 0.512 1.664 1.195v0l1.024 2.923h26.069c0.96 0 1.749 0.789 1.749 1.749 0 0.277-0.064 0.512-0.149 0.725zM11.392 8.853l3.243 9.301 15.125-1.024 3.733-8.277h-22.101z"></path>

</defs>
</svg>
