<svg aria-hidden="true" style="position: absolute; width: 0; height: 0; overflow: hidden;" version="1.1" xmlns="http://www.w3.org/2000/svg" xmlns:xlink="http://www.w3.org/1999/xlink">
<defs>

<symbol id="icon-facebook" viewBox="0 0 16 32">
<title>facebook</title>
<path d="M5.022 2.055c-1.797 1.834-1.858 5.415-2.006 9.046-1.034 0-1.858 0-2.892 0 0 1.822 0 3.138 0 4.96 1.071 0 1.858 0 2.929 0 0 5.169 0 10.843 0 15.692 2.191 0 6.868 0 6.868 0v-15.754c0 0 2.548 0 3.963 0 0.308-1.662 0.603-2.966 1.034-4.898-1.637 0-3.323 0-4.96 0 0.049-1.649-0.258-3.938 0.258-4.726 0.935-1.428 4.677-1.058 4.677-1.058s0-3.249 0-5.071c-5.895 0-7.828-0.246-9.858 1.809z"></path>
</symbol>

<symbol id="icon-instagram" viewBox="0 0 32 32">
<title>instagram</title>
<path d="M27.938 31.754h-23.631c-2.178 0-3.938-1.76-3.938-3.938v-23.631c0-2.178 1.76-3.938 3.938-3.938h23.631c2.178 0 3.938 1.76 3.938 3.938v23.631c0 2.178-1.76 3.938-3.938 3.938zM16.123 9.895c-2.462 0-4.566 1.452-5.538 3.545v0c-0.012 0.025-0.025 0.049-0.025 0.062-0.062 0.135-0.111 0.271-0.16 0.406-0.025 0.062-0.049 0.123-0.074 0.185-0.049 0.135-0.086 0.283-0.123 0.418-0.012 0.062-0.025 0.135-0.049 0.197-0.025 0.148-0.049 0.308-0.074 0.455 0 0.062-0.025 0.123-0.025 0.185-0.025 0.209-0.037 0.431-0.037 0.652 0 3.372 2.732 6.105 6.105 6.105s6.105-2.732 6.105-6.105c0-0.222-0.012-0.443-0.037-0.652 0-0.062-0.025-0.123-0.025-0.185-0.025-0.148-0.049-0.308-0.074-0.455-0.025-0.062-0.037-0.135-0.049-0.197-0.037-0.135-0.074-0.283-0.123-0.418-0.025-0.062-0.049-0.123-0.074-0.185-0.049-0.135-0.098-0.271-0.16-0.406 0-0.012-0.012-0.037-0.025-0.062v0c-0.972-2.092-3.077-3.545-5.538-3.545zM28.332 5.366c0-0.874-0.702-1.575-1.575-1.575h-3.151c-0.874 0-1.575 0.702-1.575 1.575v3.151c0 0.874 0.702 1.575 1.575 1.575h3.151c0.874 0 1.575-0.702 1.575-1.575v-3.151zM28.332 13.44h-2.905c0.222 0.812 0.345 1.674 0.345 2.56 0 5.329-4.32 9.649-9.649 9.649s-9.649-4.32-9.649-9.649c0-0.886 0.123-1.748 0.345-2.56h-2.905v13.194c0 0.874 0.702 1.575 1.575 1.575h21.268c0.874 0 1.575-0.702 1.575-1.575v-13.194z"></path>
</symbol>

<symbol id="icon-pinterest" viewBox="0 0 26 32">
<title>pinterest</title>
<path d="M12.763 22.277c0.665 0.382 1.465 0.64 2.437 0.714 0.997 0.074 1.945-0.111 2.757-0.345 0.825-0.246 1.551-0.603 2.154-0.997 2.486-1.625 4.135-4.468 4.726-7.951 0.16-0.935 0.382-1.858 0.382-2.917 0-1.046-0.246-1.969-0.492-2.818-0.48-1.637-1.231-2.942-2.252-4.074-0.997-1.095-2.178-1.982-3.668-2.646-1.403-0.628-3.274-1.095-5.329-0.997-0.702 0.037-1.354 0.074-1.982 0.16-1.883 0.271-3.434 0.849-4.812 1.662-1.785 1.058-3.249 2.535-4.258 4.382-0.48 0.886-0.923 1.982-1.157 3.175-0.246 1.231-0.246 2.708 0 3.988 0.394 2.092 1.378 3.705 2.978 4.591 0.209 0.123 0.529 0.308 0.788 0.295 0.615-0.012 0.628-0.738 0.763-1.255 0.111-0.431 0.369-1.034 0.148-1.428-0.16-0.283-0.406-0.492-0.566-0.738-0.517-0.775-0.837-1.785-0.837-3.077 0-1.674 0.406-3.028 1.034-4.197 1.182-2.24 3.2-3.865 6.043-4.345 1.575-0.271 3.335-0.135 4.615 0.283 1.292 0.418 2.351 1.169 3.089 2.105 0.788 0.985 1.28 2.252 1.391 3.84 0.062 0.862 0 1.723-0.086 2.474-0.258 2.338-0.935 4.308-2.055 5.772-0.702 0.911-1.748 1.883-3.262 1.932-0.862 0.025-1.477-0.185-1.994-0.566-0.505-0.369-0.874-0.862-1.046-1.575-0.185-0.775 0.037-1.514 0.234-2.228 0.394-1.452 0.825-2.572 1.157-4.074 0.148-0.665 0.283-1.575 0.098-2.326-0.172-0.714-0.529-1.218-1.071-1.538-0.517-0.308-1.366-0.431-2.129-0.16-1.206 0.418-1.994 1.575-2.326 2.88-0.197 0.738-0.258 1.538-0.172 2.388 0.074 0.751 0.258 1.378 0.529 2.092 0.037 0.098-0.074 0.382-0.111 0.554-0.603 2.56-1.169 5.046-1.772 7.582-0.308 1.329-0.652 2.671-0.726 4.271-0.062 1.403-0.185 2.855-0.012 4.111 0.037 0.234 0.049 0.394 0.209 0.418 0.209 0.049 0.062 0.369 0.775-0.443 1.071-1.231 1.871-2.757 2.511-4.332 0.382-0.948 0.615-2.006 0.886-3.040 0.271-1.046 0.529-2.129 0.788-3.151 0.394 0.702 0.96 1.157 1.625 1.526z"></path>
</symbol>

<symbol id="icon-twitter" viewBox="0 0 38 32">
<title>twitter</title>
<path d="M24.538 0.989c-0.596 0.131-1.178 0.291-1.702 0.524-2.167 0.945-3.651 2.691-4.32 5.135-0.276 0.975-0.378 2.589-0.044 3.593-1.222 0-2.4-0.189-3.433-0.451-4.029-0.989-6.545-2.327-9.338-4.509-0.815-0.64-1.629-1.367-2.269-2.167-0.204-0.262-0.538-0.495-0.684-0.8-0.015 0-0.029-0.015-0.044-0.015-0.32 0.596-0.625 1.251-0.815 1.993-0.756 2.909 0.436 5.353 1.716 6.924 0.393 0.48 1.018 0.785 1.396 1.222 0.015 0 0.029 0 0.044 0-0.291 0.102-0.785-0.044-1.047-0.087-0.596-0.116-1.105-0.233-1.6-0.451-0.262-0.116-0.524-0.247-0.785-0.378-0.015 3.215 1.615 5.295 3.593 6.545 0.655 0.407 1.556 0.945 2.502 1.004-0.509 0.422-2.662 0.233-3.404 0.145 0.931 2.415 2.371 4.015 4.844 4.887 0.64 0.218 1.411 0.422 2.269 0.407-0.451 0.538-1.425 0.975-2.065 1.353-1.324 0.771-2.851 1.28-4.582 1.658-0.698 0.145-1.425 0.116-2.182 0.247-0.829 0.131-1.702-0.073-2.444-0.087 0.218 0.131 0.451 0.276 0.669 0.407 0.684 0.422 1.396 0.785 2.167 1.12 1.382 0.611 2.865 1.062 4.495 1.469 3.287 0.815 7.942 0.451 10.807-0.451 8-2.487 13.062-8.32 14.967-16.887 0.335-1.469 0.378-3.156 0.349-4.902 0.393-0.32 0.8-0.625 1.193-0.945 0.989-0.785 1.905-1.891 2.589-2.967 0 0 0-0.015 0-0.015-1.295 0.407-2.662 1.149-4.32 1.164 0 0 0-0.015 0-0.015 0.32-0.131 0.582-0.393 0.844-0.596 1.164-0.902 1.92-2.080 2.473-3.593-0.32 0.175-0.64 0.349-0.945 0.524-0.975 0.495-2.633 1.207-3.913 1.324-1.498-1.367-3.084-2.444-6.036-2.4-0.305 0.029-0.625 0.073-0.931 0.116z"></path>
</symbol>

</defs>
</svg>
